# xmcd
#
# Track frame offsets:
#	150
#	13762
#	25732
#	38347
#	50685
#	63742
#	73652
#	86887
#	99422
#	110095
#	120922
#	133260
#	145245
#	157222
#	169472
#	181712
#	191877
#	203945
#	218952
#	231785
#	245287
#
# Disc length: 3422 seconds
#
# Revision: 12
# Processed by: cddbd v1.5.2PL0 Copyright (c) Steve Scherf et al.
# Submitted via: audiograbber 1.83.01
#
DISCID=390d5c15
DTITLE=Bobby Bare - The Best Of Bobby Bare
DYEAR=1994
DGENRE=Country
TTITLE0=The All-American Boy [Recorded under the name Bill Parsons]
TTITLE1=I'd Fight The World
TTITLE2=Detroit City
TTITLE3=500 Miles Away From Home
TTITLE4=Miller's Cave
TTITLE5=Have I Stayed Away Too Long
TTITLE6=Long Black Limousine
TTITLE7=Four Strong Winds
TTITLE8=When The Wind Blows (In Chicago)
TTITLE9=Just To Satisfy You
TTITLE10=The Long Black Veil
TTITLE11=The Streets Of Baltimore
TTITLE12=Houston
TTITLE13=Green, Green Grass Of Home
TTITLE14=The Game Of Triangles (with Liz Anderson and Norma Jean)
TTITLE15=Charleston Railroad Tavern
TTITLE16=Chicken Every Sunday
TTITLE17=(Margie's At) The Lincoln Park Inn
TTITLE18=God Bless America Again
TTITLE19=Your Husband, My Wife (with Skeeter Davis)
TTITLE20=Come On Home And Sing The Blues To Daddy
EXTD=
EXTT0=
EXTT1=
EXTT2=
EXTT3=
EXTT4=
EXTT5=
EXTT6=
EXTT7=
EXTT8=
EXTT9=
EXTT10=
EXTT11=
EXTT12=
EXTT13=
EXTT14=
EXTT15=
EXTT16=
EXTT17=
EXTT18=
EXTT19=
EXTT20=
PLAYORDER=
